<?xml version="1.0" encoding="UTF-8" standalone="no"?>
<!-- Created with Inkscape (http://www.inkscape.org/) -->

<svg
   width="300"
   height="300"
   viewBox="0 0 79.374998 79.375"
   version="1.1"
   id="svg1"
   xmlns:sodipodi="http://sodipodi.sourceforge.net/DTD/sodipodi-0.dtd"
   xmlns="http://www.w3.org/2000/svg"
   xmlns:svg="http://www.w3.org/2000/svg">
  <defs
     id="defs1" />
  <g id="hint">
    <path
       d="M 39.687499,0 A 39.6875,39.6875 0 0 0 34.039266,0.4041097 39.6875,39.6875 0 0 0 28.50627,1.6076538 39.6875,39.6875 0 0 0 23.200651,3.5863444 39.6875,39.6875 0 0 0 18.230928,6.3003905 39.6875,39.6875 0 0 0 13.697872,9.693465 39.6875,39.6875 0 0 0 9.693465,13.697872 39.6875,39.6875 0 0 0 6.3003905,18.230928 39.6875,39.6875 0 0 0 3.5863444,23.200651 39.6875,39.6875 0 0 0 1.6076538,28.50627 39.6875,39.6875 0 0 0 0.4041097,34.039266 39.6875,39.6875 0 0 0 0,39.687499 a 39.6875,39.6875 0 0 0 0.4041097,5.648234 39.6875,39.6875 0 0 0 1.2035441,5.532996 39.6875,39.6875 0 0 0 1.9786906,5.305619 39.6875,39.6875 0 0 0 2.7140461,4.969723 39.6875,39.6875 0 0 0 3.3930745,4.533056 39.6875,39.6875 0 0 0 4.004407,4.004407 39.6875,39.6875 0 0 0 4.533056,3.393074 39.6875,39.6875 0 0 0 4.969723,2.714047 39.6875,39.6875 0 0 0 5.305619,1.97869 39.6875,39.6875 0 0 0 5.532996,1.203544 39.6875,39.6875 0 0 0 5.648233,0.40411 39.6875,39.6875 0 0 0 5.648234,-0.40411 39.6875,39.6875 0 0 0 5.532996,-1.203544 39.6875,39.6875 0 0 0 5.305619,-1.97869 39.6875,39.6875 0 0 0 4.969723,-2.714047 39.6875,39.6875 0 0 0 4.533056,-3.393074 39.6875,39.6875 0 0 0 4.004407,-4.004407 39.6875,39.6875 0 0 0 3.393074,-4.533056 39.6875,39.6875 0 0 0 2.714047,-4.969723 39.6875,39.6875 0 0 0 1.97869,-5.305619 39.6875,39.6875 0 0 0 1.203544,-5.532996 39.6875,39.6875 0 0 0 0.40411,-5.648234 39.6875,39.6875 0 0 0 -0.04806,-1.947167 39.6875,39.6875 0 0 0 -0.143144,-1.943034 39.6875,39.6875 0 0 0 -0.238228,-1.933216 39.6875,39.6875 0 0 0 -0.333313,-1.919262 39.6875,39.6875 0 0 0 -0.426847,-1.900659 39.6875,39.6875 0 0 0 -0.519349,-1.877405 39.6875,39.6875 0 0 0 -0.610815,-1.8495 39.6875,39.6875 0 0 0 -0.701249,-1.81746 39.6875,39.6875 0 0 0 -0.789616,-1.78077 A 39.6875,39.6875 0 0 0 74.68898,20.979081 39.6875,39.6875 0 0 0 73.728832,19.284094 39.6875,39.6875 0 0 0 72.686518,17.6382 39.6875,39.6875 0 0 0 71.564623,16.045532 39.6875,39.6875 0 0 0 70.366247,14.510225 39.6875,39.6875 0 0 0 69.093973,13.034863 39.6875,39.6875 0 0 0 67.750902,11.624097 39.6875,39.6875 0 0 0 66.340136,10.281026 39.6875,39.6875 0 0 0 64.864774,9.0087523 39.6875,39.6875 0 0 0 63.329467,7.8103759 39.6875,39.6875 0 0 0 61.736799,6.6884805 39.6875,39.6875 0 0 0 60.090905,5.6461669 39.6875,39.6875 0 0 0 58.395918,4.6860188 39.6875,39.6875 0 0 0 56.655973,3.8106201 39.6875,39.6875 0 0 0 54.875203,3.0210042 39.6875,39.6875 0 0 0 53.057743,2.319755 39.6875,39.6875 0 0 0 51.208243,1.7089396 39.6875,39.6875 0 0 0 49.330838,1.1895915 39.6875,39.6875 0 0 0 47.430179,0.76274413 39.6875,39.6875 0 0 0 45.510917,0.42943115 39.6875,39.6875 0 0 0 43.577701,0.1912028 39.6875,39.6875 0 0 0 41.634667,0.04805908 39.6875,39.6875 0 0 0 39.687499,0 Z M 33.999991,8.005196 H 45.375008 V 19.242753 H 33.999991 Z m 0,17.461983 H 45.375008 V 71.369803 H 33.999991 Z"
       style="fill:#000000;fill-opacity:1"
       id="path2" />
  </g>
  <g id="pen">
    <path
       id="path5"
       style="fill:#000000;fill-opacity:1"
       d="M 67.962259,0.01240234 58.083792,9.8686482 69.490331,21.275187 79.362597,11.425142 Z M 53.513012,14.56862 13.509253,54.484012 24.90959,65.896752 64.919551,25.975158 Z M 13.468428,54.448872 0,79.374999 24.963334,65.955663 Z" />
  </g>
</svg>
